<?xml version="1.0" encoding="UTF-8" standalone="no"?>
<svg
   fill="#000000"
   height="157.30469"
   width="191.40625"
   version="1.1"
   viewBox="0 0 490 402.7"
   enable-background="new 0 0 512 512"
   id="svg6"
   sodipodi:docname="server.svg"
   inkscape:version="1.4 (e7c3feb100, 2024-10-09)"
   xmlns:inkscape="http://www.inkscape.org/namespaces/inkscape"
   xmlns:sodipodi="http://sodipodi.sourceforge.net/DTD/sodipodi-0.dtd"
   xmlns="http://www.w3.org/2000/svg"
   xmlns:svg="http://www.w3.org/2000/svg">
  <defs
     id="defs6" />
  <sodipodi:namedview
     id="namedview6"
     pagecolor="#ffffff"
     bordercolor="#000000"
     borderopacity="0"
     inkscape:showpageshadow="false"
     inkscape:pageopacity="0.0"
     inkscape:pagecheckerboard="true"
     inkscape:deskcolor="#ffffff"
     inkscape:zoom="3.2795993"
     inkscape:cx="144.98722"
     inkscape:cy="82.327131"
     inkscape:window-width="1366"
     inkscape:window-height="761"
     inkscape:window-x="0"
     inkscape:window-y="0"
     inkscape:window-maximized="1"
     inkscape:current-layer="svg6"
     showguides="false"
     showborder="false"
     inkscape:antialias-rendering="true"
     borderlayer="false" />
  <path
     d="m 379.1,361.9 -268.2,-0.1 c -38.6,0 -70.1,-31.4 -70.1,-70 0,-38.6 31.4,-70.1 70.1,-70.1 h 268.2 c 38.6,0 70,31.4 70,70.1 0.1,38.6 -31.4,70.1 -70,70.1 z M 40.8,110.9 c 0,-38.6 31.4,-70 70.1,-70 h 268.2 c 38.6,0 70,31.4 70,70 0,38.6 -31.4,70.1 -70,70.1 H 110.9 C 72.3,180.9 40.8,149.5 40.8,110.9 Z m 402.4,90.4 C 471.5,181.2 490,148.1 490,110.8 490,49.7 440.3,0 379.1,0 H 110.9 C 49.7,0 0,49.7 0,110.9 0,148.2 18.5,181.3 46.8,201.4 18.5,221.5 0,254.5 0,291.8 0,352.9 49.7,402.7 110.9,402.7 h 268.2 c 61.1,0 110.9,-49.7 110.9,-110.9 0,-37.3 -18.5,-70.3 -46.8,-90.5 z"
     id="path1"
     sodipodi:nodetypes="ssssscsssssscscsssscssssc"
     style="display:inline;mix-blend-mode:normal" />
  <path
     d="m 101.3,131.3 h 8.9 c 11.3,0 20.4,-9.1 20.4,-20.4 0,-11.3 -9.1,-20.4 -20.4,-20.4 h -8.9 c -11.3,0 -20.4,9.1 -20.4,20.4 -0.1,11.3 9.1,20.4 20.4,20.4 z"
     id="path2"
     style="display:inline;mix-blend-mode:normal" />
  <path
     d="m 177.8,131.3 h 8.9 c 11.3,0 20.4,-9.1 20.4,-20.4 0,-11.3 -9.1,-20.4 -20.4,-20.4 h -8.9 c -11.3,0 -20.4,9.1 -20.4,20.4 0,11.3 9.1,20.4 20.4,20.4 z"
     id="path3"
     style="display:inline;mix-blend-mode:normal" />
  <path
     d="m 114.7,271.4 h -8.9 c -11.3,0 -20.4,9.1 -20.4,20.4 0,11.3 9.1,20.4 20.4,20.4 h 8.9 c 11.3,0 20.4,-9.1 20.4,-20.4 0,-11.3 -9.2,-20.4 -20.4,-20.4 z"
     id="path4"
     style="display:inline;mix-blend-mode:normal" />
  <path
     d="m 191.2,271.4 h -8.9 c -11.3,0 -20.4,9.1 -20.4,20.4 0,11.3 9.1,20.4 20.4,20.4 h 8.9 c 11.3,0 20.4,-9.1 20.4,-20.4 0,-11.3 -9.1,-20.4 -20.4,-20.4 z"
     id="path5"
     style="display:inline;mix-blend-mode:normal" />
  <path
     d="m 298.27756,291.13096 h -19.2 v 57.6 h 19.2 v -19.2 h 38.4 v 19.2 h 19.2 v -57.6 h -19.2 v -19.2 h -38.4 z m 38.4,-19.2 h 38.4 v -38.4 h -38.4 z m -76.8,0 h 38.4 v -38.4 h -38.4 z"
     id="path6"
     style="display:inline;stroke-width:9.6" />
</svg>
